<?xml version="1.0" encoding="UTF-8" standalone="no"?>
<svg
   xmlns:dc="http://purl.org/dc/elements/1.1/"
   xmlns:cc="http://creativecommons.org/ns#"
   xmlns:rdf="http://www.w3.org/1999/02/22-rdf-syntax-ns#"
   xmlns:svg="http://www.w3.org/2000/svg"
   xmlns="http://www.w3.org/2000/svg"
   xmlns:sodipodi="http://sodipodi.sourceforge.net/DTD/sodipodi-0.dtd"
   xmlns:inkscape="http://www.inkscape.org/namespaces/inkscape"
   width="200"
   height="200"
   viewBox="0 0 52.916685 52.916668"
   version="1.1"
   id="svg8"
   sodipodi:docname="c-running_invert.svg"
   inkscape:version="1.0.2 (e86c870879, 2021-01-15, custom)">
  <defs
     id="defs2" />
  <sodipodi:namedview
     id="base"
     pagecolor="#ffffff"
     bordercolor="#666666"
     borderopacity="1.0"
     inkscape:pageopacity="0.0"
     inkscape:pageshadow="2"
     inkscape:zoom="1.4"
     inkscape:cx="229.22705"
     inkscape:cy="166.78177"
     inkscape:document-units="mm"
     inkscape:current-layer="layer1"
     inkscape:document-rotation="0"
     showgrid="false"
     inkscape:window-width="1920"
     inkscape:window-height="1017"
     inkscape:window-x="-8"
     inkscape:window-y="-8"
     inkscape:window-maximized="1"
     units="px" />
  <metadata
     id="metadata5">
    <rdf:RDF>
      <cc:Work
         rdf:about="">
        <dc:format>image/svg+xml</dc:format>
        <dc:type
           rdf:resource="http://purl.org/dc/dcmitype/StillImage" />
        <dc:title></dc:title>
      </cc:Work>
    </rdf:RDF>
  </metadata>
  <g
     inkscape:label="Ebene 1"
     inkscape:groupmode="layer"
     id="layer1">
    <path
       style="fill:#000000;stroke-width:0.133635"
       d="m 14.420831,21.67288 c 0.322776,-3.47082 0.975953,-6.571718 1.726406,-8.195977 0.889019,-1.924166 2.605321,-3.9428504 4.134152,-4.8625204 2.860821,-1.7209292 7.642291,-1.9368618 11.051397,-0.499084 2.3851,1.005909 3.978706,2.7395064 5.119486,5.5692074 0.469361,1.164249 1.138233,3.536532 1.022612,3.626895 -0.0346,0.02704 -1.506167,0.381961 -3.270146,0.788707 l -3.207234,0.739537 -0.163449,-0.748067 c -0.492612,-2.254589 -1.022731,-3.39762 -1.988701,-4.28802 -0.84032,-0.774578 -1.307095,-0.937043 -2.687818,-0.935506 -1.918549,0.0021 -2.874999,0.616919 -3.801173,2.443313 -0.632439,1.247159 -0.893652,2.257664 -1.063268,4.1133 l -0.153585,1.680253 -3.155905,0.714364 c -1.735749,0.392898 -3.268137,0.743103 -3.405305,0.778229 -0.232624,0.05957 -0.243215,-0.0026 -0.157469,-0.924631 z"
       id="path40" />
    <path
       style="fill:#000000;stroke-width:0.133635"
       d="m 24.579299,44.273813 c -5.495136,-0.776557 -8.749641,-4.699053 -9.887551,-11.916981 -0.20648,-1.309735 -0.437808,-5.324801 -0.306787,-5.324801 0.03371,0 1.487673,-0.330747 3.231018,-0.734991 1.743343,-0.404246 3.227322,-0.734991 3.297725,-0.734991 0.07276,0 0.128526,0.562409 0.129204,1.302938 0.0019,2.005748 0.241604,5.494649 0.453826,6.603846 0.265517,1.387732 0.941057,3.067463 1.536385,3.820229 0.743641,0.940297 1.653919,1.384414 3.011088,1.469085 0.998419,0.06229 1.177359,0.03408 1.932104,-0.304633 0.894636,-0.401489 1.704419,-1.191945 2.186043,-2.133867 0.472774,-0.924616 1.019937,-2.718162 1.175211,-3.852233 0.08222,-0.600495 0.170616,-1.112935 0.196434,-1.138753 0.02582,-0.02582 1.419058,0.396444 3.096091,0.93836 3.571793,1.15419 3.341878,0.892914 2.77573,3.154326 -1.175202,4.694213 -3.847547,7.634925 -7.788359,8.570494 -1.280261,0.30394 -3.860734,0.44836 -5.038162,0.281972 z"
       id="path42" />
  </g>
</svg>
